<svg width="21" height="20" viewBox="0 0 21 20" fill="none" xmlns="http://www.w3.org/2000/svg">
<path d="M10.3333 10.8333C10.7936 10.8333 11.1667 10.4602 11.1667 10C11.1667 9.53977 10.7936 9.16668 10.3333 9.16668C9.8731 9.16668 9.5 9.53977 9.5 10C9.5 10.4602 9.8731 10.8333 10.3333 10.8333Z" stroke="#98A2B3" stroke-width="1.66667" stroke-linecap="round" stroke-linejoin="round"/>
<path d="M10.3333 5.00001C10.7936 5.00001 11.1667 4.62691 11.1667 4.16668C11.1667 3.70644 10.7936 3.33334 10.3333 3.33334C9.8731 3.33334 9.5 3.70644 9.5 4.16668C9.5 4.62691 9.8731 5.00001 10.3333 5.00001Z" stroke="#98A2B3" stroke-width="1.66667" stroke-linecap="round" stroke-linejoin="round"/>
<path d="M10.3333 16.6667C10.7936 16.6667 11.1667 16.2936 11.1667 15.8333C11.1667 15.3731 10.7936 15 10.3333 15C9.8731 15 9.5 15.3731 9.5 15.8333C9.5 16.2936 9.8731 16.6667 10.3333 16.6667Z" stroke="#98A2B3" stroke-width="1.66667" stroke-linecap="round" stroke-linejoin="round"/>
</svg>
